# xmcd CD database file
#
# Track frame offsets:
#	150
#	19226
#	39452
#	59521
#	80777
#	112395
#	133257
#	150840
#	169790
#	192643
#	212235
#	229191
#	245380
#	261877
#
# Disc length: 4123 seconds
#
# Revision: 1
# Processed by: cddbd v1.4PL0 Copyright (c) Steve Scherf et al.
# Submitted via: NotifyCDPlayer 1.60beta14
#
DISCID=cf10190e
DTITLE=Sergio Cammariere - Dalla pace del mare lontano
DYEAR=1900
DGENRE=
TTITLE0=Tutto quello che un uomo
TTITLE1=Sorella mia
TTITLE2=Tempo perduto
TTITLE3=Via da questo mare
TTITLE4=Cambiamenti del mondo
TTITLE5=Dalla pace del mare lontano
TTITLE6=Apri la porta
TTITLE7=Canto nel vento
TTITLE8=Le porte del sogno
TTITLE9=Il mare
TTITLE10=Per ricordarmi di te
TTITLE11=Paese di goal
TTITLE12=Vita d'artista
TTITLE13=Cantautore piccolino
EXTD=
EXTT0=
EXTT1=
EXTT2=
EXTT3=
EXTT4=
EXTT5=
EXTT6=
EXTT7=
EXTT8=
EXTT9=
EXTT10=
EXTT11=
EXTT12=
EXTT13=
PLAYORDER=
